# xmcd
#
# Track frame offsets:
#	150
#	22075
#	38155
#	63262
#
# Disc length: 1133 seconds
#
# Revision: 1
# Processed by: cddbd v1.5.1PL0 Copyright (c) Steve Scherf et al.
# Submitted via: CDex 1.50Beta5
#
DISCID=2d046b04
DTITLE=Skoop On Somebody - eternal snow
DYEAR=1900
DGENRE=Unclassifiable
TTITLE0=eternal snow
TTITLE1=this Christmas
TTITLE2=線香花火 〜acoustic version〜
TTITLE3=eternal snow 〜instrumental〜
EXTD=
EXTT0=
EXTT1=
EXTT2=
EXTT3=
PLAYORDER=
